<svg width="400" height="400" viewBox="0 0 400 400" fill="none" xmlns="http://www.w3.org/2000/svg">
<rect width="200" height="200" transform="matrix(-1 0 0 1 200 0)" fill="#8EB5F0"/>
<path d="M200 100C200 155.228 155.228 200 100 200L100 0C155.228 0 200 44.7715 200 100Z" fill="#546EF3"/>
<path d="M0 100C0 155.228 44.7715 200 100 200L100 0C44.7715 0 0 44.7715 0 100Z" fill="#E1EBFB"/>
<rect width="200" height="200" transform="matrix(0 -1 -1 0 400 200)" fill="#8EB5F0"/>
<path d="M200 200V175L225 200H200Z" fill="#1E1E1E"/>
<path d="M225 200V175L250 200H225Z" fill="#1E1E1E"/>
<path d="M250 200V175L275 200H250Z" fill="#1E1E1E"/>
<path d="M275 200V175L300 200H275Z" fill="#1E1E1E"/>
<path d="M300 200V175L325 200H300Z" fill="#1E1E1E"/>
<path d="M325 200V175L350 200H325Z" fill="#1E1E1E"/>
<path d="M350 200V175L375 200H350Z" fill="#1E1E1E"/>
<path d="M375 200V175L400 200H375Z" fill="#1E1E1E"/>
<path d="M200 175V150L225 175H200Z" fill="#1E1E1E"/>
<path d="M225 175V150L250 175H225Z" fill="#1E1E1E"/>
<path d="M250 175V150L275 175H250Z" fill="#1E1E1E"/>
<path d="M275 175V150L300 175H275Z" fill="#1E1E1E"/>
<path d="M300 175V150L325 175H300Z" fill="#1E1E1E"/>
<path d="M325 175V150L350 175H325Z" fill="#1E1E1E"/>
<path d="M350 175V150L375 175H350Z" fill="#1E1E1E"/>
<path d="M200 150V125L225 150H200Z" fill="#1E1E1E"/>
<path d="M225 150V125L250 150H225Z" fill="#1E1E1E"/>
<path d="M250 150V125L275 150H250Z" fill="#1E1E1E"/>
<path d="M275 150V125L300 150H275Z" fill="#1E1E1E"/>
<path d="M300 150V125L325 150H300Z" fill="#1E1E1E"/>
<path d="M325 150V125L350 150H325Z" fill="#1E1E1E"/>
<path d="M200 125V100L225 125H200Z" fill="#1E1E1E"/>
<path d="M225 125V100L250 125H225Z" fill="#1E1E1E"/>
<path d="M250 125V100L275 125H250Z" fill="#1E1E1E"/>
<path d="M275 125V100L300 125H275Z" fill="#1E1E1E"/>
<path d="M300 125V100L325 125H300Z" fill="#1E1E1E"/>
<path d="M200 100V75L225 100H200Z" fill="#1E1E1E"/>
<path d="M225 100V75L250 100H225Z" fill="#1E1E1E"/>
<path d="M250 100V75L275 100H250Z" fill="#1E1E1E"/>
<path d="M275 100V75L300 100H275Z" fill="#1E1E1E"/>
<path d="M200 75V50L225 75H200Z" fill="#1E1E1E"/>
<path d="M225 75V50L250 75H225Z" fill="#1E1E1E"/>
<path d="M250 75V50L275 75H250Z" fill="#1E1E1E"/>
<path d="M200 50V25L225 50H200Z" fill="#1E1E1E"/>
<path d="M225 50V25L250 50H225Z" fill="#1E1E1E"/>
<path d="M200 25V0L225 25H200Z" fill="#1E1E1E"/>
<rect y="400" width="200" height="200" transform="rotate(-90 0 400)" fill="#8EB5F0"/>
<path d="M0 300C55.2285 300 100 255.228 100 200H0V300Z" fill="#E1EBFB"/>
<path d="M200 300C144.772 300 100 255.228 100 200H200V300Z" fill="#546EF3"/>
<path d="M0 300C55.2285 300 100 344.772 100 400H0V300Z" fill="#E1EBFB"/>
<path d="M200 300C144.772 300 100 344.772 100 400H200V300Z" fill="#546EF3"/>
<rect width="200" height="200" transform="matrix(0 -1 -1 0 400 400)" fill="#8EB5F0"/>
<path d="M400 200C400 226.264 394.827 252.272 384.776 276.537C374.725 300.802 359.993 322.85 341.421 341.421C322.85 359.993 300.802 374.725 276.537 384.776C252.272 394.827 226.264 400 200 400L200 200H400Z" fill="#1E1E1E"/>
<path d="M300 200C300 213.132 297.413 226.136 292.388 238.268C287.362 250.401 279.997 261.425 270.711 270.711C261.425 279.997 250.401 287.362 238.268 292.388C226.136 297.413 213.132 300 200 300L200 200H300Z" fill="#546EF3"/>
</svg>
